<?xml version="1.0" encoding="UTF-8" standalone="no"?>
<!DOCTYPE svg PUBLIC "-//W3C//DTD SVG 1.1//EN" "http://www.w3.org/Graphics/SVG/1.1/DTD/svg11.dtd">
<svg version="1.1" xmlns="http://www.w3.org/2000/svg" xmlns:xlink="http://www.w3.org/1999/xlink" preserveAspectRatio="xMidYMid meet" viewBox="0 0 640 640" width="640" height="640">
  <defs>
    <path d="M450 350C450 405.19 405.19 450 350 450C294.81 450 250 405.19 250 350C250 294.81 294.81 250 350 250C405.19 250 450 294.81 450 350Z" id="c21uvxOSrI"></path>
    <path d="M326.25 300C331.08 300 335 303.92 335 308.75C335 327 335 373 335 391.25C335 396.08 331.08 400 326.25 400C321 400 314 400 308.75 400C303.92 400 300 396.08 300 391.25C300 373 300 327 300 308.75C300 303.92 303.92 300 308.75 300C314 300 321 300 326.25 300Z" id="g2177Zevix"></path>
    <path d="M391.25 300C396.08 300 400 303.92 400 308.75C400 327 400 373 400 391.25C400 396.08 396.08 400 391.25 400C386 400 379 400 373.75 400C368.92 400 365 396.08 365 391.25C365 373 365 327 365 308.75C365 303.92 368.92 300 373.75 300C379 300 386 300 391.25 300Z" id="dYZ8GacBD"></path>
  </defs>
  <g>
    <g>
      <g>
        <g>
          <filter id="shadow14206044" x="241" y="241" width="219" height="219" filterUnits="userSpaceOnUse" primitiveUnits="userSpaceOnUse">
            <feFlood></feFlood>
            <feComposite in2="SourceAlpha" operator="in"></feComposite>
            <feGaussianBlur stdDeviation="1"></feGaussianBlur>
            <feOffset dx="1" dy="1" result="afterOffset"></feOffset>
            <feFlood flood-color="#000000" flood-opacity="0.5"></feFlood>
            <feComposite in2="afterOffset" operator="in"></feComposite>
            <feMorphology operator="dilate" radius="1"></feMorphology>
            <feComposite in2="SourceAlpha" operator="out"></feComposite>
          </filter>
          <path d="M450 350C450 405.19 405.19 450 350 450C294.81 450 250 405.19 250 350C250 294.81 294.81 250 350 250C405.19 250 450 294.81 450 350Z" id="aCEWlbYsO" fill="white" fill-opacity="1" filter="url(#shadow14206044)"></path>
        </g>
        <use xlink:href="#c21uvxOSrI" opacity="1" fill="#1f2325" fill-opacity="1"></use>
        <g>
          <use xlink:href="#c21uvxOSrI" opacity="1" fill-opacity="0" stroke="#79848a" stroke-width="1" stroke-opacity="1"></use>
        </g>
      </g>
      <g>
        <g>
          <filter id="shadow11038642" x="289" y="289" width="60" height="124" filterUnits="userSpaceOnUse" primitiveUnits="userSpaceOnUse">
            <feFlood></feFlood>
            <feComposite in2="SourceAlpha" operator="in"></feComposite>
            <feGaussianBlur stdDeviation="1"></feGaussianBlur>
            <feOffset dx="3" dy="2" result="afterOffset"></feOffset>
            <feFlood flood-color="#000000" flood-opacity="0.5"></feFlood>
            <feComposite in2="afterOffset" operator="in"></feComposite>
            <feMorphology operator="dilate" radius="1"></feMorphology>
            <feComposite in2="SourceAlpha" operator="out"></feComposite>
          </filter>
          <path d="M326.25 300C331.08 300 335 303.92 335 308.75C335 327 335 373 335 391.25C335 396.08 331.08 400 326.25 400C321 400 314 400 308.75 400C303.92 400 300 396.08 300 391.25C300 373 300 327 300 308.75C300 303.92 303.92 300 308.75 300C314 300 321 300 326.25 300Z" id="bb20j77SY" fill="white" fill-opacity="1" filter="url(#shadow11038642)"></path>
        </g>
        <use xlink:href="#g2177Zevix" opacity="1" fill="#8f3636" fill-opacity="1"></use>
      </g>
      <g>
        <g>
          <filter id="shadow12942060" x="354" y="289" width="60" height="125" filterUnits="userSpaceOnUse" primitiveUnits="userSpaceOnUse">
            <feFlood></feFlood>
            <feComposite in2="SourceAlpha" operator="in"></feComposite>
            <feGaussianBlur stdDeviation="1"></feGaussianBlur>
            <feOffset dx="3" dy="3" result="afterOffset"></feOffset>
            <feFlood flood-color="#000000" flood-opacity="0.5"></feFlood>
            <feComposite in2="afterOffset" operator="in"></feComposite>
            <feMorphology operator="dilate" radius="1"></feMorphology>
            <feComposite in2="SourceAlpha" operator="out"></feComposite>
          </filter>
          <path d="M391.25 300C396.08 300 400 303.92 400 308.75C400 327 400 373 400 391.25C400 396.08 396.08 400 391.25 400C386 400 379 400 373.75 400C368.92 400 365 396.08 365 391.25C365 373 365 327 365 308.75C365 303.92 368.92 300 373.75 300C379 300 386 300 391.25 300Z" id="b1SHYOyNog" fill="white" fill-opacity="1" filter="url(#shadow12942060)"></path>
        </g>
        <use xlink:href="#dYZ8GacBD" opacity="1" fill="#8f3636" fill-opacity="1"></use>
      </g>
    </g>
  </g>
</svg>